<svg width="28" height="28" viewBox="0 0 28 28" fill="none" xmlns="http://www.w3.org/2000/svg">
<g clip-path="url(#clip0)">
<path d="M23.0997 18.1062C21.7874 18.1062 20.7197 19.1741 20.7197 20.4862C20.7197 21.7985 21.7874 22.8662 23.0997 22.8662C24.4118 22.8662 25.4797 21.7985 25.4797 20.4862C25.4797 19.1741 24.4118 18.1062 23.0997 18.1062ZM23.0997 21.1862C22.7136 21.1862 22.3997 20.8723 22.3997 20.4862C22.3997 20.1001 22.7136 19.7862 23.0997 19.7862C23.4858 19.7862 23.7997 20.1001 23.7997 20.4862C23.7997 20.8723 23.4858 21.1862 23.0997 21.1862Z" fill="#00AAC0"/>
<path d="M22.8727 8.21289H18.7607C18.4513 8.21289 18.2007 8.46379 18.2007 8.77289V19.6929C18.2007 20.002 18.4513 20.2529 18.7607 20.2529H19.3546C19.6318 20.2529 19.8773 20.0532 19.9132 19.7783C20.133 18.0944 21.4761 17.05 23.101 17.05C24.7258 17.05 26.069 18.0944 26.2887 19.7783C26.3246 20.0533 26.5698 20.2529 26.8473 20.2529H27.4406C27.7497 20.2529 28.0006 20.002 28.0006 19.6929V14.2329C28.0006 14.1013 27.9544 13.9742 27.8702 13.8736L23.3022 8.41365C23.1959 8.28655 23.0385 8.21289 22.8727 8.21289ZM19.3207 12.6929V9.89289C19.3207 9.58379 19.5713 9.33289 19.8807 9.33289H22.3475C22.5135 9.33289 22.6712 9.40683 22.7775 9.53447L25.1108 12.3345C25.4146 12.6993 25.1553 13.2529 24.6804 13.2529H19.8807C19.5713 13.2529 19.3207 13.0023 19.3207 12.6929Z" fill="#00AAC0"/>
<path d="M0.56 20.2531H1.9939C2.27111 20.2531 2.51666 20.0534 2.55248 19.7785C2.77227 18.0946 4.11545 17.0502 5.74027 17.0502C7.3651 17.0502 8.70827 18.0946 8.92806 19.7785C8.96389 20.0535 9.20916 20.2531 9.48665 20.2531H16.52C16.8291 20.2531 17.08 20.0022 17.08 19.6931V5.69306C17.08 5.38396 16.8291 5.13306 16.52 5.13306H0.56C0.250582 5.13306 0 5.38396 0 5.69306V19.6931C0 20.0022 0.250582 20.2531 0.56 20.2531Z" fill="#00AAC0"/>
<path d="M5.73987 18.1062C4.42753 18.1062 3.35986 19.1741 3.35986 20.4862C3.35986 21.7985 4.42753 22.8662 5.73987 22.8662C7.05194 22.8662 8.11987 21.7985 8.11987 20.4862C8.11987 19.1741 7.05194 18.1062 5.73987 18.1062ZM5.73987 21.1862C5.35377 21.1862 5.03987 20.8723 5.03987 20.4862C5.03987 20.1001 5.35377 19.7862 5.73987 19.7862C6.12597 19.7862 6.43987 20.1001 6.43987 20.4862C6.43987 20.8723 6.12597 21.1862 5.73987 21.1862Z" fill="#00AAC0"/>
</g>
<defs>
<clipPath id="clip0">
<rect width="28" height="28" fill="white"/>
</clipPath>
</defs>
</svg>
