<svg width="24" height="24" viewBox="0 0 24 24" fill="none" xmlns="http://www.w3.org/2000/svg">
<g clip-path="url(#clip0)">
<path d="M21.891 2.85938H2.10976C1.78505 2.85938 1.48107 2.9392 1.20605 3.07078L11.9535 13.8182L14.3624 11.5032C14.3624 11.5032 14.3626 11.503 14.3626 11.5029C14.3626 11.5028 14.3628 11.5027 14.3628 11.5027L22.795 3.07097C22.52 2.9393 22.2158 2.85938 21.891 2.85938Z" fill="#00AAC0"/>
<path d="M23.7891 4.06592L15.854 12.0006L23.7889 19.9355C23.9204 19.6605 24.0003 19.3565 24.0003 19.0318V4.96929C24.0003 4.64478 23.9206 4.34084 23.7891 4.06592Z" fill="#00AAC0"/>
<path d="M0.211406 4.06543C0.0798281 4.34045 0 4.64443 0 4.96913V19.0316C0 19.3561 0.0797344 19.6602 0.211219 19.9351L8.14636 12.0004L0.211406 4.06543Z" fill="#00AAC0"/>
<path d="M14.8597 12.9942L12.4505 15.3095C12.3132 15.4469 12.1333 15.5155 11.9534 15.5155C11.7735 15.5155 11.5936 15.4469 11.4563 15.3095L9.14085 12.9941L1.20557 20.9289C1.48063 21.0606 1.7848 21.1405 2.1096 21.1405H21.8909C22.2156 21.1405 22.5195 21.0607 22.7946 20.9291L14.8597 12.9942Z" fill="#00AAC0"/>
</g>
<defs>
<clipPath id="clip0">
<rect width="24" height="24" fill="white"/>
</clipPath>
</defs>
</svg>
