<svg width="19" height="19" viewBox="0 0 19 19" fill="none" xmlns="http://www.w3.org/2000/svg">
<path d="M17.4629 12.4666C16.3015 12.4666 15.1611 12.285 14.0804 11.9278C13.5509 11.7472 12.8999 11.9129 12.5767 12.2449L10.4437 13.8551C7.97005 12.5346 6.44632 11.0114 5.1439 8.55625L6.70671 6.47882C7.11274 6.07334 7.25838 5.48101 7.08389 4.92525C6.72524 3.83891 6.54305 2.69907 6.54305 1.53715C6.54309 0.697769 5.86022 0.0148926 5.02089 0.0148926H1.5371C0.697769 0.0148926 0.0148926 0.697769 0.0148926 1.5371C0.0148926 11.158 7.84196 18.985 17.4629 18.985C18.3022 18.985 18.9851 18.3022 18.9851 17.4628V13.9888C18.985 13.1495 18.3022 12.4666 17.4629 12.4666Z" fill="white"/>
</svg>
