<svg width="24" height="24" viewBox="0 0 24 24" fill="currentColor" xmlns="http://www.w3.org/2000/svg">
	<g clip-path="url(#clip0)">
		<path
			d="M12.0001 0C6.94739 0 1.89478 0.631599 1.89478 5.05262V17.0526C1.89478 19.4905 3.87792 21.4737 6.31585 21.4737L4.42111 23.3685V24.0001H7.23794L9.76427 21.4737H14.5264L17.0527 24H19.579V23.3684L17.6843 21.4737C20.1222 21.4737 22.1054 19.4905 22.1054 17.0526V5.05262C22.1053 0.631599 17.5832 0 12.0001 0ZM6.31585 18.9474C5.26741 18.9474 4.42111 18.1011 4.42111 17.0526C4.42111 16.0042 5.26741 15.1579 6.31585 15.1579C7.36429 15.1579 8.21059 16.0042 8.21059 17.0526C8.21059 18.1011 7.36423 18.9474 6.31585 18.9474ZM10.7369 10.1053H4.42111V5.05262H10.7369V10.1053H10.7369ZM17.6843 18.9474C16.6358 18.9474 15.7895 18.1011 15.7895 17.0526C15.7895 16.0042 16.6358 15.1579 17.6843 15.1579C18.7327 15.1579 19.579 16.0042 19.579 17.0526C19.579 18.1011 18.7327 18.9474 17.6843 18.9474ZM19.579 10.1053H13.2632V5.05262H19.579V10.1053Z"
			fill="currentColor"/>
	</g>
	<defs>
		<clipPath id="clip0">
			<rect width="24" height="24" fill="white"/>
		</clipPath>
	</defs>
</svg>
