<svg width="16" height="16" viewBox="0 0 43 47" fill="none" xmlns="http://www.w3.org/2000/svg">
	<path
		d="M40.0658 8.36417C39.9644 8.42675 39.8479 8.46086 39.7287 8.46288C39.6275 8.46205 39.5282 8.43639 39.4394 8.38817C39.3506 8.33996 39.2751 8.27069 39.2197 8.18649C39.155 8.0888 39.1206 7.97442 39.1205 7.85745C39.1208 7.75576 39.1463 7.65573 39.1948 7.5662C39.2432 7.47667 39.313 7.4004 39.3981 7.34415C40.4161 6.68607 41.4804 6.02799 42.5447 5.41598C42.6288 5.37282 42.7212 5.34813 42.8157 5.34359V1.01343C7.44334 19.9464 0 47 0 47H10.7353C10.7284 46.9498 10.7284 46.8988 10.7353 46.8486C11.046 45.6641 11.3964 44.4795 11.7732 43.3147C11.7977 43.2368 11.8379 43.1647 11.8912 43.1026C11.9444 43.0405 12.0098 42.9898 12.0833 42.9536C12.1568 42.9173 12.2369 42.8962 12.3188 42.8915C12.4007 42.8869 12.4827 42.8988 12.5598 42.9265C12.7124 42.9777 12.839 43.086 12.913 43.2284C12.987 43.3708 13.0026 43.5362 12.9564 43.6898C12.5995 44.7823 12.2954 45.8944 11.9781 46.9802H22.2441C23.6284 37.0383 27.6361 27.6396 33.8586 19.7424C36.4881 16.4491 39.4941 13.4721 42.8157 10.8715V6.67291C41.8837 7.23885 40.9846 7.77848 40.0658 8.36417ZM18.1324 31.8247C17.608 32.7679 17.1056 33.7243 16.6252 34.6939C16.1449 35.6635 15.6909 36.6396 15.2635 37.6224C15.2166 37.732 15.1383 37.8255 15.0384 37.891C14.9384 37.9566 14.8213 37.9913 14.7016 37.9909C14.6192 37.9925 14.5376 37.9745 14.4636 37.9382C14.3897 37.9074 14.3226 37.8622 14.2665 37.8053C14.2103 37.7483 14.1662 37.6808 14.1366 37.6066C14.107 37.5324 14.0927 37.4531 14.0943 37.3733C14.096 37.2935 14.1137 37.2149 14.1463 37.142C14.3645 36.6352 14.5892 36.1351 14.8074 35.635L14.9924 35.2401C15.1643 34.8716 15.3428 34.5096 15.5213 34.1411C15.5543 34.0753 15.594 34.0095 15.627 33.9371C16.0832 33.0224 16.5591 32.1142 17.0483 31.2324C17.1343 31.1053 17.2651 31.0149 17.4148 30.9791C17.5645 30.9433 17.7222 30.9648 17.8568 31.0392C17.9914 31.1136 18.093 31.2357 18.1416 31.3811C18.1902 31.5265 18.1822 31.6848 18.1192 31.8247H18.1324ZM25.503 21.1835C25.0469 21.7232 24.5974 22.2694 24.1809 22.8222C23.7645 23.375 23.3084 23.9343 22.8589 24.5003C22.4093 25.0662 21.9731 25.7177 21.5368 26.3297C21.4804 26.4106 21.4054 26.4767 21.3179 26.5225C21.2305 26.5684 21.1332 26.5925 21.0344 26.593C20.9109 26.5921 20.7908 26.553 20.6906 26.4811C20.5654 26.39 20.4803 26.2542 20.4532 26.1022C20.4261 25.9501 20.4591 25.7935 20.5452 25.6651C20.9617 25.0531 21.398 24.4476 21.8673 23.8356C22.3366 23.2236 22.7333 22.6905 23.1894 22.1246L23.2555 22.0456C23.6785 21.5126 24.1148 20.9795 24.5776 20.4597C24.6292 20.3987 24.6924 20.3485 24.7636 20.3119C24.8347 20.2753 24.9124 20.253 24.9922 20.2463C25.072 20.2396 25.1523 20.2486 25.2286 20.2727C25.3049 20.2969 25.3757 20.3359 25.4369 20.3873C25.4981 20.4387 25.5485 20.5016 25.5853 20.5724C25.6221 20.6433 25.6445 20.7206 25.6513 20.8C25.658 20.8795 25.649 20.9595 25.6247 21.0354C25.6004 21.1114 25.5613 21.1818 25.5096 21.2428L25.503 21.1835ZM34.8039 12.1613C33.1182 13.5103 31.4987 14.9515 29.932 16.452C29.8163 16.5619 29.6623 16.6232 29.5023 16.6231C29.3477 16.6163 29.2003 16.5558 29.0859 16.452C28.9716 16.3373 28.9075 16.1824 28.9075 16.0209C28.9075 15.8594 28.9716 15.7045 29.0859 15.5899C30.6592 14.0631 32.3316 12.5956 34.0437 11.2268C34.1062 11.1767 34.178 11.1393 34.255 11.1168C34.332 11.0943 34.4127 11.0871 34.4925 11.0957C34.5723 11.1043 34.6497 11.1284 34.7201 11.1667C34.7905 11.205 34.8527 11.2567 34.903 11.3189C34.9534 11.3812 34.9909 11.4527 35.0135 11.5293C35.0361 11.606 35.0434 11.6863 35.0348 11.7658C35.0262 11.8452 35.0019 11.9222 34.9635 11.9923C34.925 12.0624 34.873 12.1243 34.8105 12.1744L34.8039 12.1613Z"
		fill="#00ABC1"/>
	<path
		d="M9.80972 0C9.26852 0.0017352 8.74998 0.216532 8.3673 0.597505C7.98461 0.978478 7.76884 1.49469 7.7671 2.03346V7.82456C7.76623 8.09246 7.81838 8.35791 7.92056 8.60575C8.02274 8.85359 8.17295 9.07897 8.36263 9.26902C8.5523 9.45907 8.77772 9.61006 9.02602 9.71338C9.27431 9.8167 9.54061 9.87032 9.80972 9.87118H27.5389C32.3477 6.16528 37.4575 2.86353 42.8156 0L9.80972 0Z"
		fill="#FCBF3F"/>
	<path
		d="M40.7732 37.1428H25.5692C24.5266 40.363 23.7593 43.6652 23.2754 47.014H40.7732C41.3144 47.0123 41.8329 46.7975 42.2156 46.4165C42.5983 46.0355 42.8141 45.5193 42.8158 44.9805V39.1763C42.8141 38.6375 42.5983 38.1213 42.2156 37.7403C41.8329 37.3594 41.3144 37.1446 40.7732 37.1428Z"
		fill="#FCBF3F"/>
	<path
		d="M23.2686 46.9935H24.7559C24.7559 46.9935 25.7342 41.3143 29.1386 37.1223H25.5558C24.5149 40.3426 23.7497 43.6447 23.2686 46.9935Z"
		fill="#EDA523"/>
</svg>
