<svg width="210" height="47" viewBox="0 0 210 47" fill="none" xmlns="http://www.w3.org/2000/svg">
<path d="M71.0158 28.721V32.6234H55.4813V29.537L64.2269 19.1986H55.7061V15.3291H70.6456V18.3892L61.9 28.721H71.0158Z" fill="#343434"/>
<path d="M89.677 15.3291V32.6234H84.7721V25.8649H78.0824V32.6234H73.1708V15.3291H78.0824V21.8178H84.7721V15.3291H89.677Z" fill="#343434"/>
<path d="M96.9485 31.7811C95.512 31.0429 94.3114 29.9197 93.4821 28.5383C92.6528 27.1568 92.2278 25.5722 92.2551 23.9631C92.2328 22.3584 92.6601 20.7793 93.4891 19.403C94.3182 18.0267 95.5161 16.9076 96.9485 16.1714C98.4867 15.4012 100.185 15 101.906 15C103.628 15 105.326 15.4012 106.864 16.1714C108.301 16.9096 109.501 18.0328 110.331 19.4142C111.16 20.7956 111.585 22.3803 111.558 23.9894C111.585 25.5985 111.16 27.1832 110.331 28.5646C109.501 29.946 108.301 31.0692 106.864 31.8074C105.325 32.5731 103.627 32.9718 101.906 32.9718C100.185 32.9718 98.488 32.5731 96.9485 31.8074V31.7811ZM104.273 28.2801C104.982 27.8634 105.565 27.2629 105.959 26.5428C106.379 25.7483 106.59 24.8609 106.573 23.9631C106.591 23.0652 106.38 22.1775 105.959 21.3834C105.569 20.6604 104.985 20.0591 104.273 19.6461C103.546 19.2403 102.727 19.0271 101.893 19.0271C101.06 19.0271 100.24 19.2403 99.5134 19.6461C98.8007 20.0564 98.2187 20.6586 97.8343 21.3834C97.411 22.177 97.1972 23.0647 97.2129 23.9631C97.1981 24.8614 97.4119 25.7488 97.8343 26.5428C98.2242 27.2657 98.8077 27.8671 99.52 28.2801C100.247 28.6859 101.066 28.899 101.9 28.899C102.733 28.899 103.553 28.6859 104.279 28.2801H104.273Z" fill="#343434"/>
<path d="M114.109 15.3291H118.988V28.721H127.264V32.6234H114.109V15.3291Z" fill="#343434"/>
<path d="M129.221 15.329H137.424C139.169 15.2976 140.897 15.6598 142.481 16.3885C143.888 17.0424 145.074 18.0867 145.899 19.396C146.727 20.7745 147.148 22.3572 147.115 23.963C147.151 25.5671 146.729 27.1483 145.899 28.5235C145.077 29.8364 143.889 30.8835 142.481 31.5375C140.9 32.2753 139.171 32.6465 137.424 32.6233H129.221V15.329ZM137.226 28.6749C138.534 28.7418 139.817 28.298 140.802 27.4377C141.257 26.9848 141.61 26.4408 141.838 25.8418C142.066 25.2428 142.164 24.6024 142.124 23.963C142.163 23.3228 142.065 22.6816 141.837 22.0816C141.609 21.4816 141.257 20.9364 140.802 20.4818C139.817 19.6152 138.532 19.1644 137.219 19.2249H134.126V28.6749H137.226Z" fill="#343434"/>
<path d="M161.063 29.2409H153.732L152.364 32.6235H147.36L155.021 15.3555H159.847L167.528 32.6235H162.425L161.063 29.2409ZM159.629 25.6412L157.394 20.12L155.167 25.6478L159.629 25.6412Z" fill="#343434"/>
<path d="M169.438 32.031C169.174 31.7751 168.964 31.4678 168.823 31.1283C168.682 30.7888 168.613 30.4241 168.619 30.0568C168.608 29.6899 168.673 29.3248 168.812 28.9848C168.951 28.6448 169.16 28.3375 169.425 28.0825C169.985 27.5908 170.705 27.3193 171.451 27.3193C172.198 27.3193 172.918 27.5908 173.477 28.0825C173.739 28.3398 173.944 28.6478 174.08 28.9875C174.217 29.3271 174.282 29.6911 174.271 30.0568C174.278 30.4231 174.21 30.7869 174.071 31.1263C173.932 31.4657 173.726 31.7735 173.464 32.031C172.918 32.539 172.199 32.8215 171.451 32.8215C170.704 32.8215 169.985 32.539 169.438 32.031Z" fill="#343434"/>
<path d="M183.386 26.3322L181.555 28.3064V32.6234H176.697V15.3291H181.555V22.5087L188.272 15.3291H193.685L186.586 22.976L194.042 32.6234H188.344L183.386 26.3322Z" fill="#343434"/>
<path d="M210 28.721V32.6234H194.466V29.537L203.211 19.1986H194.69V15.3291H209.63V18.3892L200.884 28.721H210Z" fill="#343434"/>
<path d="M40.0658 8.36417C39.9644 8.42675 39.8479 8.46086 39.7287 8.46288C39.6275 8.46205 39.5282 8.43639 39.4394 8.38817C39.3506 8.33996 39.2751 8.27069 39.2197 8.18649C39.155 8.0888 39.1206 7.97442 39.1205 7.85745C39.1208 7.75576 39.1463 7.65573 39.1948 7.5662C39.2432 7.47667 39.313 7.4004 39.3981 7.34415C40.4161 6.68607 41.4804 6.02799 42.5447 5.41598C42.6288 5.37282 42.7212 5.34813 42.8157 5.34359V1.01343C7.44334 19.9464 0 47 0 47H10.7353C10.7284 46.9498 10.7284 46.8988 10.7353 46.8486C11.046 45.6641 11.3964 44.4795 11.7732 43.3147C11.7977 43.2368 11.8379 43.1647 11.8912 43.1026C11.9444 43.0405 12.0098 42.9898 12.0833 42.9536C12.1568 42.9173 12.2369 42.8962 12.3188 42.8915C12.4007 42.8869 12.4827 42.8988 12.5598 42.9265C12.7124 42.9777 12.839 43.086 12.913 43.2284C12.987 43.3708 13.0026 43.5362 12.9564 43.6898C12.5995 44.7823 12.2954 45.8944 11.9781 46.9802H22.2441C23.6284 37.0383 27.6361 27.6396 33.8586 19.7424C36.4881 16.4491 39.4941 13.4721 42.8157 10.8715V6.67291C41.8837 7.23885 40.9846 7.77848 40.0658 8.36417ZM18.1324 31.8247C17.608 32.7679 17.1056 33.7243 16.6252 34.6939C16.1449 35.6635 15.6909 36.6396 15.2635 37.6224C15.2166 37.732 15.1383 37.8255 15.0384 37.891C14.9384 37.9566 14.8213 37.9913 14.7016 37.9909C14.6192 37.9925 14.5376 37.9745 14.4636 37.9382C14.3897 37.9074 14.3226 37.8622 14.2665 37.8053C14.2103 37.7483 14.1662 37.6808 14.1366 37.6066C14.107 37.5324 14.0927 37.4531 14.0943 37.3733C14.096 37.2935 14.1137 37.2149 14.1463 37.142C14.3645 36.6352 14.5892 36.1351 14.8074 35.635L14.9924 35.2401C15.1643 34.8716 15.3428 34.5096 15.5213 34.1411C15.5543 34.0753 15.594 34.0095 15.627 33.9371C16.0832 33.0224 16.5591 32.1142 17.0483 31.2324C17.1343 31.1053 17.2651 31.0149 17.4148 30.9791C17.5645 30.9433 17.7222 30.9648 17.8568 31.0392C17.9914 31.1136 18.093 31.2357 18.1416 31.3811C18.1902 31.5265 18.1822 31.6848 18.1192 31.8247H18.1324ZM25.503 21.1835C25.0469 21.7232 24.5974 22.2694 24.1809 22.8222C23.7645 23.375 23.3084 23.9343 22.8589 24.5003C22.4093 25.0662 21.9731 25.7177 21.5368 26.3297C21.4804 26.4106 21.4054 26.4767 21.3179 26.5225C21.2305 26.5684 21.1332 26.5925 21.0344 26.593C20.9109 26.5921 20.7908 26.553 20.6906 26.4811C20.5654 26.39 20.4803 26.2542 20.4532 26.1022C20.4261 25.9501 20.4591 25.7935 20.5452 25.6651C20.9617 25.0531 21.398 24.4476 21.8673 23.8356C22.3366 23.2236 22.7333 22.6905 23.1894 22.1246L23.2555 22.0456C23.6785 21.5126 24.1148 20.9795 24.5776 20.4597C24.6292 20.3987 24.6924 20.3485 24.7636 20.3119C24.8347 20.2753 24.9124 20.253 24.9922 20.2463C25.072 20.2396 25.1523 20.2486 25.2286 20.2727C25.3049 20.2969 25.3757 20.3359 25.4369 20.3873C25.4981 20.4387 25.5485 20.5016 25.5853 20.5724C25.6221 20.6433 25.6445 20.7206 25.6513 20.8C25.658 20.8795 25.649 20.9595 25.6247 21.0354C25.6004 21.1114 25.5613 21.1818 25.5096 21.2428L25.503 21.1835ZM34.8039 12.1613C33.1182 13.5103 31.4987 14.9515 29.932 16.452C29.8163 16.5619 29.6623 16.6232 29.5023 16.6231C29.3477 16.6163 29.2003 16.5558 29.0859 16.452C28.9716 16.3373 28.9075 16.1824 28.9075 16.0209C28.9075 15.8594 28.9716 15.7045 29.0859 15.5899C30.6592 14.0631 32.3316 12.5956 34.0437 11.2268C34.1062 11.1767 34.178 11.1393 34.255 11.1168C34.332 11.0943 34.4127 11.0871 34.4925 11.0957C34.5723 11.1043 34.6497 11.1284 34.7201 11.1667C34.7905 11.205 34.8527 11.2567 34.903 11.3189C34.9534 11.3812 34.9909 11.4527 35.0135 11.5293C35.0361 11.606 35.0434 11.6863 35.0348 11.7658C35.0262 11.8452 35.0019 11.9222 34.9635 11.9923C34.925 12.0624 34.873 12.1243 34.8105 12.1744L34.8039 12.1613Z" fill="#00ABC1"/>
<path d="M9.80987 0C9.26867 0.0017352 8.75014 0.216532 8.36745 0.597505C7.98476 0.978478 7.769 1.49469 7.76725 2.03346V7.82456C7.76638 8.09246 7.81853 8.35791 7.92071 8.60575C8.02289 8.85359 8.17311 9.07897 8.36278 9.26902C8.55246 9.45907 8.77788 9.61006 9.02617 9.71338C9.27446 9.8167 9.54077 9.87032 9.80987 9.87118H27.539C32.3479 6.16528 37.4577 2.86353 42.8157 0L9.80987 0Z" fill="#FCBF3F"/>
<path d="M40.7733 37.1428H25.5693C24.5268 40.363 23.7594 43.6652 23.2755 47.014H40.7733C41.3145 47.0123 41.833 46.7975 42.2157 46.4165C42.5984 46.0355 42.8142 45.5193 42.8159 44.9805V39.1763C42.8142 38.6375 42.5984 38.1213 42.2157 37.7403C41.833 37.3594 41.3145 37.1446 40.7733 37.1428Z" fill="#FCBF3F"/>
<path d="M23.2687 46.9935H24.7561C24.7561 46.9935 25.7344 41.3143 29.1388 37.1223H25.5559C24.515 40.3426 23.7499 43.6447 23.2687 46.9935Z" fill="#EDA523"/>
</svg>
